<svg width="22" height="22" viewBox="0 0 22 22" fill="none" xmlns="http://www.w3.org/2000/svg">
<path d="M21.7833 8.93722C21.9236 9.67361 22 10.4435 22 11.247C22 17.5314 17.7079 22 11.2252 22C9.75097 22.0004 8.29109 21.7162 6.92898 21.1636C5.56687 20.6109 4.32923 19.8007 3.28679 18.7792C2.24434 17.7576 1.41751 16.5448 0.853553 15.21C0.289593 13.8753 -0.000448965 12.4447 5.21637e-07 11C-0.000448965 9.55534 0.289593 8.12474 0.853553 6.78996C1.41751 5.45518 2.24434 4.24238 3.28679 3.22084C4.32923 2.19931 5.56687 1.38907 6.92898 0.836429C8.29109 0.283783 9.75097 -0.000439958 11.2252 5.11172e-07C14.2562 5.11172e-07 16.7888 1.09285 18.7319 2.86733L15.5675 5.9682V5.96038C14.3896 4.86083 12.8946 4.29653 11.2252 4.29653C7.52148 4.29653 4.51107 7.36276 4.51107 10.9933C4.51107 14.6227 7.52148 17.6957 11.2252 17.6957C14.5857 17.6957 16.8732 15.8128 17.343 13.227H11.2252V8.93722H21.7845H21.7833Z" />
</svg>
